<svg version="1.1" id="Layer_1" xmlns="http://www.w3.org/2000/svg" xmlns:xlink="http://www.w3.org/1999/xlink" x="0px" y="0px"
	 width="100%" viewBox="0 0 787 374" enable-background="new 0 0 787 374" xml:space="preserve">
<path fill="#FFFFFF" opacity="1.000000" stroke="none" 
	d="
M524.000000,375.000000 
	C349.333374,375.000000 175.166748,375.000000 1.000093,375.000000 
	C1.000062,250.333405 1.000062,125.666809 1.000031,1.000160 
	C263.333191,1.000107 525.666382,1.000107 787.999634,1.000053 
	C787.999756,125.666504 787.999756,250.333008 787.999878,374.999756 
	C700.166687,375.000000 612.333313,375.000000 524.000000,375.000000 
M385.283508,267.447052 
	C385.285431,266.352203 385.287354,265.257324 385.289307,264.162476 
	C384.413635,264.698669 383.537933,265.234894 382.662262,265.771118 
	C383.448914,266.506989 384.235565,267.242859 384.620911,268.527710 
	C383.193054,269.639618 381.765167,270.751526 380.337311,271.863403 
	C380.568481,272.148590 380.799622,272.433746 381.030792,272.718933 
	C383.497772,272.416382 385.964722,272.113831 389.277924,271.707520 
	C387.616364,270.289886 386.289093,269.157471 385.283508,267.447052 
M574.284119,266.282654 
	C574.298401,265.786285 574.312744,265.289886 574.327087,264.793518 
	C573.868164,265.556549 573.409241,266.319550 572.616638,267.599792 
	C570.571777,271.205841 570.571777,271.205841 579.013550,271.741882 
	C577.349548,270.161774 575.685486,268.581696 574.284119,266.282654 
M189.707291,140.174622 
	C164.806534,151.278687 149.968521,170.385010 147.487747,197.430695 
	C143.399109,242.005615 180.085709,276.917328 224.610123,271.924194 
	C267.414307,267.123962 295.848145,220.597656 280.439392,180.570618 
	C266.053589,143.200867 228.302567,126.129829 189.707291,140.174622 
M526.318787,163.761612 
	C526.189331,164.806259 526.059875,165.850891 525.900330,167.138321 
	C515.790039,158.584930 503.213074,158.578918 494.548492,166.822678 
	C485.551361,175.382858 484.683105,192.119797 492.722687,202.019150 
	C500.856354,212.034348 512.887329,213.024750 525.508240,204.718018 
	C526.493347,215.822815 524.191528,221.755432 517.914307,224.290176 
	C511.167358,227.014587 505.411499,224.523712 498.216675,215.703354 
	C494.615784,217.255798 490.984711,218.821259 486.778687,220.634598 
	C488.287689,223.108978 489.313751,225.611984 491.033417,227.474716 
	C500.380280,237.599411 512.147644,237.707397 524.228149,234.518845 
	C533.755310,232.004257 539.454041,223.795715 539.783081,211.991577 
	C540.219238,196.342056 539.965881,180.673187 539.990784,165.012604 
	C539.992493,163.922638 539.843567,162.832443 539.694946,160.779160 
	C534.959595,161.565048 530.707947,162.270691 526.318787,163.761612 
M451.606201,213.120667 
	C453.764282,213.056839 455.936188,213.127350 458.078156,212.906982 
	C470.162109,211.663742 478.824646,203.253235 480.569519,191.162247 
	C482.435883,178.229614 476.876984,167.062943 465.355621,162.987717 
	C460.719971,161.348038 455.172119,162.488586 450.135773,161.726746 
	C444.503326,160.874756 439.841400,162.611557 435.488708,165.763702 
	C426.638519,172.172897 423.033264,183.604630 426.271942,194.695892 
	C429.543335,205.899200 437.893311,212.197205 451.606201,213.120667 
M561.084351,165.512299 
	C549.938599,174.708649 547.193481,189.625687 554.948730,201.709213 
	C561.491638,211.903702 571.768738,213.913544 582.963013,212.945129 
	C594.934937,211.909454 604.128845,203.547424 605.939880,192.255432 
	C608.108643,178.732941 602.616638,167.411835 590.885437,162.864197 
	C580.987427,159.027161 571.058411,159.641449 561.084351,165.512299 
M322.584320,162.875351 
	C317.105011,165.434540 314.005707,169.719864 312.854858,175.833725 
	C317.125031,176.609604 321.012909,177.316025 325.104431,178.059448 
	C326.479553,172.773575 329.938141,170.425034 335.013916,170.434509 
	C338.864502,170.441696 342.783386,171.135788 343.529877,175.608444 
	C344.329071,180.396561 339.983856,180.421036 336.923431,181.308502 
	C331.516144,182.876511 325.881256,183.855484 320.701935,185.965500 
	C313.807770,188.774139 310.899933,195.149521 312.302460,202.274719 
	C313.598755,208.860214 318.377655,212.718292 325.919250,213.128708 
	C332.569824,213.490631 338.730316,212.149017 343.903046,207.161682 
	C344.541229,209.018097 345.060028,210.527344 345.624054,212.167999 
	C348.819336,212.167999 351.852722,212.465866 354.775146,212.026367 
	C356.002930,211.841721 357.956604,210.089493 357.948151,209.063339 
	C357.859161,198.246841 357.587128,187.425964 357.064941,176.620819 
	C356.654388,168.124283 351.810028,162.076187 343.475525,161.336746 
	C336.843506,160.748352 330.039001,162.103790 322.584320,162.875351 
M639.646057,171.681824 
	C644.501953,176.770218 646.538818,176.991669 654.650269,172.801819 
	C652.377563,169.854767 650.674194,166.414703 647.936646,164.337448 
	C640.993042,159.068619 627.159058,159.148270 620.015991,164.253296 
	C617.970093,165.715515 616.156921,168.016418 615.154785,170.330276 
	C612.108948,177.362473 614.869385,184.678833 621.923462,187.844910 
	C626.736633,190.005157 632.098877,190.955719 636.874817,193.179184 
	C638.973633,194.156296 641.460815,196.875320 641.594788,198.944366 
	C641.849609,202.879929 638.108276,203.045731 635.039856,203.215790 
	C629.634583,203.515350 626.511475,200.351349 624.358215,195.824448 
	C620.367615,197.006500 616.644714,198.109268 612.924805,199.211136 
	C614.110413,205.063065 617.330200,208.760895 622.152283,210.801880 
	C630.684326,214.413116 639.535278,214.479370 647.785583,210.450455 
	C650.816101,208.970490 653.999390,205.284180 654.726013,202.065414 
	C657.158569,191.289749 653.362915,185.636322 642.676147,182.119659 
	C638.732483,180.821960 634.611755,179.993347 630.796204,178.409943 
	C629.278503,177.780106 627.140137,175.271545 627.451050,174.346893 
	C628.012695,172.676712 630.040161,170.750412 631.754333,170.402267 
	C634.007141,169.944702 636.548828,170.909622 639.646057,171.681824 
M412.070618,136.277145 
	C408.165833,136.277145 404.261047,136.277145 400.394043,136.277145 
	C400.394043,162.069458 400.394043,186.974167 400.394043,211.950531 
	C405.248352,211.950531 409.850769,211.950531 414.719727,211.950531 
	C414.719727,187.384476 414.737030,163.087402 414.646301,138.790710 
	C414.643188,137.957947 413.556671,137.129227 412.070618,136.277145 
M371.137329,181.500290 
	C371.137329,191.609253 371.137329,201.718216 371.137329,211.952576 
	C376.092102,211.952576 380.673859,211.952576 385.552185,211.952576 
	C385.552185,203.388504 385.552155,195.096176 385.552155,186.803864 
	C385.552155,178.411850 385.552185,170.019821 385.552185,161.772217 
	C380.277710,161.772217 375.848297,161.772217 371.137329,161.772217 
	C371.137329,168.229126 371.137329,174.364883 371.137329,181.500290 
M370.807129,148.536896 
	C372.705322,152.740112 376.063995,154.386703 380.424103,153.421661 
	C384.771057,152.459518 387.064148,148.380676 386.203308,143.918396 
	C385.393188,139.719299 381.464569,137.151978 376.912140,137.846695 
	C372.377838,138.538635 370.057220,142.194794 370.807129,148.536896 
M516.584473,270.552490 
	C516.708557,270.442261 516.905151,270.348572 516.935120,270.216919 
	C516.961975,270.099091 516.821411,269.927551 516.727112,269.800049 
	C515.410583,268.020142 514.089417,266.243713 512.443665,264.027924 
	C511.684052,265.985687 511.131531,267.409607 510.377808,269.352173 
	C509.455688,267.457397 508.778839,266.066528 507.662903,263.773468 
	C508.232086,267.535522 508.650085,270.298401 509.068115,273.061279 
	C509.538269,273.045197 510.008453,273.029114 510.478607,273.013031 
	C511.265717,271.959076 512.052795,270.905151 512.839905,269.851227 
	C513.019104,270.357910 513.198364,270.864563 513.377625,271.371216 
	C514.280884,271.179810 515.184204,270.988403 516.584473,270.552490 
M549.132141,266.578888 
	C548.927185,265.923004 548.722168,265.267120 548.517212,264.611206 
	C548.279297,264.656464 548.041443,264.701721 547.803589,264.746979 
	C547.803589,267.367950 547.803589,269.988892 547.803589,272.609863 
	C550.049927,265.167847 552.171875,270.872406 553.973999,272.917175 
	C553.973999,269.810303 553.973999,267.243439 553.973999,265.888916 
	C552.153870,266.442291 550.707764,266.881927 549.132141,266.578888 
M368.581635,264.443939 
	C368.295746,267.169769 368.009857,269.895630 367.723938,272.621460 
	C368.160370,272.699860 368.596771,272.778259 369.033173,272.856659 
	C369.453125,272.089935 369.873077,271.323212 370.293854,270.554993 
	C371.252991,271.322083 372.225098,272.099518 373.499634,273.118866 
	C373.263062,271.248444 372.606598,269.720306 373.007935,268.557098 
	C374.307587,264.789948 372.279907,264.245148 368.581635,264.443939 
M330.169495,266.415161 
	C330.986572,266.050995 331.803650,265.686829 332.620728,265.322632 
	C332.574799,265.080994 332.528870,264.839355 332.482941,264.597717 
	C331.034943,264.597717 329.586975,264.597717 328.107849,264.597717 
	C328.107849,267.533539 328.107849,270.123108 328.107849,273.042358 
	C329.800934,272.888733 331.154327,272.765930 333.533417,272.550049 
	C331.786072,271.443298 330.969360,270.925995 330.082123,270.364044 
	C331.060852,269.608673 331.743317,269.081940 332.552612,268.457367 
	C331.502167,267.868073 330.814514,267.482269 330.169495,266.415161 
z"/>
<path fill="#5C5F9F" opacity="1.000000" stroke="none" 
	d="
M190.061523,140.018250 
	C228.302567,126.129829 266.053589,143.200867 280.439392,180.570618 
	C295.848145,220.597656 267.414307,267.123962 224.610123,271.924194 
	C180.085709,276.917328 143.399109,242.005615 147.487747,197.430695 
	C149.968521,170.385010 164.806534,151.278687 190.061523,140.018250 
M237.901001,200.736221 
	C237.450516,202.163544 237.017593,203.596680 236.546982,205.017334 
	C227.508774,232.301193 196.061752,243.712570 171.556442,228.716660 
	C163.830460,223.988770 158.566376,217.180786 154.121933,208.711380 
	C153.934753,229.922211 171.426483,256.384552 198.869308,263.904785 
	C226.928391,271.593933 256.770477,259.193726 270.524902,233.914429 
	C284.548523,208.140244 278.769196,175.653107 257.243774,156.888702 
	C236.959000,139.205826 208.373199,137.848862 193.898315,146.074890 
	C221.831436,151.561661 232.416382,160.214462 237.329559,182.643326 
	C237.522598,188.421509 237.715652,194.199707 237.901001,200.736221 
M164.489944,168.060989 
	C163.690094,169.323975 162.875259,170.577744 162.092743,171.851395 
	C154.258240,184.603256 155.516861,202.349976 165.109879,214.472656 
	C175.092407,227.087540 190.859940,232.204849 205.124924,227.459442 
	C188.633270,221.667343 181.342026,213.418564 181.055603,200.229141 
	C180.813812,189.094360 187.552521,177.824432 198.113861,174.452850 
	C211.593857,170.149536 223.353912,173.277618 231.620972,186.438675 
	C231.952835,173.825897 220.941452,159.845108 208.271515,155.145172 
	C192.238480,149.197662 175.657349,154.000977 164.489944,168.060989 
M202.497696,179.549561 
	C193.268738,182.459595 187.476425,190.006821 187.224365,199.450333 
	C186.996124,208.001923 192.923096,216.412628 201.233673,219.330322 
	C209.666718,222.291031 218.788437,219.510147 224.384781,212.272369 
	C229.264496,205.961487 229.840561,196.462814 225.783157,189.215546 
	C221.356888,181.309433 213.789520,177.955475 202.497696,179.549561 
z"/>
<path fill="#121212" opacity="1.000000" stroke="none" 
	d="
M526.387512,163.368958 
	C530.707947,162.270691 534.959595,161.565048 539.694946,160.779160 
	C539.843567,162.832443 539.992493,163.922638 539.990784,165.012604 
	C539.965881,180.673187 540.219238,196.342056 539.783081,211.991577 
	C539.454041,223.795715 533.755310,232.004257 524.228149,234.518845 
	C512.147644,237.707397 500.380280,237.599411 491.033417,227.474716 
	C489.313751,225.611984 488.287689,223.108978 486.778687,220.634598 
	C490.984711,218.821259 494.615784,217.255798 498.216675,215.703354 
	C505.411499,224.523712 511.167358,227.014587 517.914307,224.290176 
	C524.191528,221.755432 526.493347,215.822815 525.508240,204.718018 
	C512.887329,213.024750 500.856354,212.034348 492.722687,202.019150 
	C484.683105,192.119797 485.551361,175.382858 494.548492,166.822678 
	C503.213074,158.578918 515.790039,158.584930 525.900330,167.138321 
	C526.059875,165.850891 526.189331,164.806259 526.387512,163.368958 
M527.022949,186.311279 
	C526.719604,178.807693 523.344238,173.830643 517.482727,172.244019 
	C511.940430,170.743820 506.074646,172.924637 503.132935,177.717026 
	C499.955505,182.893448 500.064178,188.182770 503.347321,193.208511 
	C506.360931,197.821640 510.927155,199.734314 516.281067,198.739853 
	C522.556274,197.574249 525.907776,193.306778 527.022949,186.311279 
z"/>
<path fill="#121212" opacity="1.000000" stroke="none" 
	d="
M451.140686,213.111328 
	C437.893311,212.197205 429.543335,205.899200 426.271942,194.695892 
	C423.033264,183.604630 426.638519,172.172897 435.488708,165.763702 
	C439.841400,162.611557 444.503326,160.874756 450.135773,161.726746 
	C455.172119,162.488586 460.719971,161.348038 465.355621,162.987717 
	C476.876984,167.062943 482.435883,178.229614 480.569519,191.162247 
	C478.824646,203.253235 470.162109,211.663742 458.078156,212.906982 
	C455.936188,213.127350 453.764282,213.056839 451.140686,213.111328 
M445.644287,173.866104 
	C436.556519,181.852127 437.691284,196.882568 447.685547,200.903610 
	C453.620728,203.291519 460.183044,201.570145 463.783844,196.680771 
	C467.902344,191.088425 467.781952,181.968704 463.518860,176.605423 
	C459.629028,171.711716 453.349457,170.562683 445.644287,173.866104 
z"/>
<path fill="#121212" opacity="1.000000" stroke="none" 
	d="
M561.381531,165.294434 
	C571.058411,159.641449 580.987427,159.027161 590.885437,162.864197 
	C602.616638,167.411835 608.108643,178.732941 605.939880,192.255432 
	C604.128845,203.547424 594.934937,211.909454 582.963013,212.945129 
	C571.768738,213.913544 561.491638,211.903702 554.948730,201.709213 
	C547.193481,189.625687 549.938599,174.708649 561.381531,165.294434 
M566.138855,193.944977 
	C570.495667,201.266205 577.306824,203.828751 584.147949,200.720398 
	C591.638184,197.317139 594.660645,186.683533 590.379333,178.797073 
	C587.575256,173.631760 582.925903,171.280792 576.596497,171.941376 
	C571.021179,172.523270 567.122620,175.657349 566.025696,180.981689 
	C565.220215,184.891479 565.888428,189.104904 566.138855,193.944977 
z"/>
<path fill="#121212" opacity="1.000000" stroke="none" 
	d="
M322.947693,162.735809 
	C330.039001,162.103790 336.843506,160.748352 343.475525,161.336746 
	C351.810028,162.076187 356.654388,168.124283 357.064941,176.620819 
	C357.587128,187.425964 357.859161,198.246841 357.948151,209.063339 
	C357.956604,210.089493 356.002930,211.841721 354.775146,212.026367 
	C351.852722,212.465866 348.819336,212.167999 345.624054,212.167999 
	C345.060028,210.527344 344.541229,209.018097 343.903046,207.161682 
	C338.730316,212.149017 332.569824,213.490631 325.919250,213.128708 
	C318.377655,212.718292 313.598755,208.860214 312.302460,202.274719 
	C310.899933,195.149521 313.807770,188.774139 320.701935,185.965500 
	C325.881256,183.855484 331.516144,182.876511 336.923431,181.308502 
	C339.983856,180.421036 344.329071,180.396561 343.529877,175.608444 
	C342.783386,171.135788 338.864502,170.441696 335.013916,170.434509 
	C329.938141,170.425034 326.479553,172.773575 325.104431,178.059448 
	C321.012909,177.316025 317.125031,176.609604 312.854858,175.833725 
	C314.005707,169.719864 317.105011,165.434540 322.947693,162.735809 
M326.171997,196.120163 
	C325.659241,201.533218 327.844086,203.902817 333.082794,203.615372 
	C340.290955,203.219864 344.870087,197.176544 343.636627,188.688126 
	C337.868164,191.004913 332.266479,193.254715 326.171997,196.120163 
z"/>
<path fill="#121212" opacity="1.000000" stroke="none" 
	d="
M639.306152,171.472336 
	C636.548828,170.909622 634.007141,169.944702 631.754333,170.402267 
	C630.040161,170.750412 628.012695,172.676712 627.451050,174.346893 
	C627.140137,175.271545 629.278503,177.780106 630.796204,178.409943 
	C634.611755,179.993347 638.732483,180.821960 642.676147,182.119659 
	C653.362915,185.636322 657.158569,191.289749 654.726013,202.065414 
	C653.999390,205.284180 650.816101,208.970490 647.785583,210.450455 
	C639.535278,214.479370 630.684326,214.413116 622.152283,210.801880 
	C617.330200,208.760895 614.110413,205.063065 612.924805,199.211136 
	C616.644714,198.109268 620.367615,197.006500 624.358215,195.824448 
	C626.511475,200.351349 629.634583,203.515350 635.039856,203.215790 
	C638.108276,203.045731 641.849609,202.879929 641.594788,198.944366 
	C641.460815,196.875320 638.973633,194.156296 636.874817,193.179184 
	C632.098877,190.955719 626.736633,190.005157 621.923462,187.844910 
	C614.869385,184.678833 612.108948,177.362473 615.154785,170.330276 
	C616.156921,168.016418 617.970093,165.715515 620.015991,164.253296 
	C627.159058,159.148270 640.993042,159.068619 647.936646,164.337448 
	C650.674194,166.414703 652.377563,169.854767 654.650269,172.801819 
	C646.538818,176.991669 644.501953,176.770218 639.306152,171.472336 
z"/>
<path fill="#1A1A1A" opacity="1.000000" stroke="none" 
	d="
M412.522888,136.287872 
	C413.556671,137.129227 414.643188,137.957947 414.646301,138.790710 
	C414.737030,163.087402 414.719727,187.384476 414.719727,211.950531 
	C409.850769,211.950531 405.248352,211.950531 400.394043,211.950531 
	C400.394043,186.974167 400.394043,162.069458 400.394043,136.277145 
	C404.261047,136.277145 408.165833,136.277145 412.522888,136.287872 
z"/>
<path fill="#1C1C1C" opacity="1.000000" stroke="none" 
	d="
M371.137329,181.000458 
	C371.137329,174.364883 371.137329,168.229126 371.137329,161.772217 
	C375.848297,161.772217 380.277710,161.772217 385.552185,161.772217 
	C385.552185,170.019821 385.552155,178.411850 385.552155,186.803864 
	C385.552155,195.096176 385.552185,203.388504 385.552185,211.952576 
	C380.673859,211.952576 376.092102,211.952576 371.137329,211.952576 
	C371.137329,201.718216 371.137329,191.609253 371.137329,181.000458 
z"/>
<path fill="#171717" opacity="1.000000" stroke="none" 
	d="
M370.701385,148.167633 
	C370.057220,142.194794 372.377838,138.538635 376.912140,137.846695 
	C381.464569,137.151978 385.393188,139.719299 386.203308,143.918396 
	C387.064148,148.380676 384.771057,152.459518 380.424103,153.421661 
	C376.063995,154.386703 372.705322,152.740112 370.701385,148.167633 
z"/>
<path fill="#5C5F9F" opacity="1.000000" stroke="none" 
	d="
M516.335938,270.674744 
	C515.184204,270.988403 514.280884,271.179810 513.377625,271.371216 
	C513.198364,270.864563 513.019104,270.357910 512.839905,269.851227 
	C512.052795,270.905151 511.265717,271.959076 510.478607,273.013031 
	C510.008453,273.029114 509.538269,273.045197 509.068115,273.061279 
	C508.650085,270.298401 508.232086,267.535522 507.662903,263.773468 
	C508.778839,266.066528 509.455688,267.457397 510.377808,269.352173 
	C511.131531,267.409607 511.684052,265.985687 512.443665,264.027924 
	C514.089417,266.243713 515.410583,268.020142 516.727112,269.800049 
	C516.821411,269.927551 516.961975,270.099091 516.935120,270.216919 
	C516.905151,270.348572 516.708557,270.442261 516.335938,270.674744 
z"/>
<path fill="#464B9A" opacity="1.000000" stroke="none" 
	d="
M549.196899,266.950195 
	C550.707764,266.881927 552.153870,266.442291 553.973999,265.888916 
	C553.973999,267.243439 553.973999,269.810303 553.973999,272.917175 
	C552.171875,270.872406 550.049927,265.167847 547.803589,272.609863 
	C547.803589,269.988892 547.803589,267.367950 547.803589,264.746979 
	C548.041443,264.701721 548.279297,264.656464 548.517212,264.611206 
	C548.722168,265.267120 548.927185,265.923004 549.196899,266.950195 
z"/>
<path fill="#676BA9" opacity="1.000000" stroke="none" 
	d="
M368.976013,264.350708 
	C372.279907,264.245148 374.307587,264.789948 373.007935,268.557098 
	C372.606598,269.720306 373.263062,271.248444 373.499634,273.118866 
	C372.225098,272.099518 371.252991,271.322083 370.293854,270.554993 
	C369.873077,271.323212 369.453125,272.089935 369.033173,272.856659 
	C368.596771,272.778259 368.160370,272.699860 367.723938,272.621460 
	C368.009857,269.895630 368.295746,267.169769 368.976013,264.350708 
z"/>
<path fill="#6C6FAC" opacity="1.000000" stroke="none" 
	d="
M330.148163,266.755798 
	C330.814514,267.482269 331.502167,267.868073 332.552612,268.457367 
	C331.743317,269.081940 331.060852,269.608673 330.082123,270.364044 
	C330.969360,270.925995 331.786072,271.443298 333.533417,272.550049 
	C331.154327,272.765930 329.800934,272.888733 328.107849,273.042358 
	C328.107849,270.123108 328.107849,267.533539 328.107849,264.597717 
	C329.586975,264.597717 331.034943,264.597717 332.482941,264.597717 
	C332.528870,264.839355 332.574799,265.080994 332.620728,265.322632 
	C331.803650,265.686829 330.986572,266.050995 330.148163,266.755798 
z"/>
<path fill="#C1C3DB" opacity="1.000000" stroke="none" 
	d="
M574.021423,267.001587 
	C575.685486,268.581696 577.349548,270.161774 579.013550,271.741882 
	C570.571777,271.205841 570.571777,271.205841 573.056152,267.386353 
	C573.671021,267.115814 573.846252,267.058685 574.021423,267.001587 
z"/>
<path fill="#C1C3DB" opacity="1.000000" stroke="none" 
	d="
M384.961853,268.025085 
	C386.289093,269.157471 387.616364,270.289886 389.277924,271.707520 
	C385.964722,272.113831 383.497772,272.416382 381.030792,272.718933 
	C380.799622,272.433746 380.568481,272.148590 380.337311,271.863403 
	C381.765167,270.751526 383.193054,269.639618 384.807312,268.265747 
	C384.993713,268.003784 384.961853,268.025085 384.961853,268.025085 
z"/>
<path fill="#C1C3DB" opacity="1.000000" stroke="none" 
	d="
M385.007935,267.991272 
	C384.235565,267.242859 383.448914,266.506989 382.662262,265.771118 
	C383.537933,265.234894 384.413635,264.698669 385.289307,264.162476 
	C385.287354,265.257324 385.285431,266.352203 385.122681,267.736084 
	C384.961853,268.025085 384.993713,268.003784 385.007935,267.991272 
z"/>
<path fill="#464B9A" opacity="1.000000" stroke="none" 
	d="
M574.152771,266.642120 
	C573.846252,267.058685 573.671021,267.115814 573.223022,267.127747 
	C573.409241,266.319550 573.868164,265.556549 574.327087,264.793518 
	C574.312744,265.289886 574.298401,265.786285 574.152771,266.642120 
z"/>
<path fill="#FEFEFE" opacity="1.000000" stroke="none" 
	d="
M237.880157,182.028397 
	C232.416382,160.214462 221.831436,151.561661 193.898315,146.074890 
	C208.373199,137.848862 236.959000,139.205826 257.243774,156.888702 
	C278.769196,175.653107 284.548523,208.140244 270.524902,233.914429 
	C256.770477,259.193726 226.928391,271.593933 198.869308,263.904785 
	C171.426483,256.384552 153.934753,229.922211 154.121933,208.711380 
	C158.566376,217.180786 163.830460,223.988770 171.556442,228.716660 
	C196.061752,243.712570 227.508774,232.301193 236.546982,205.017334 
	C237.017593,203.596680 237.450516,202.163544 238.000366,199.952942 
	C238.026535,193.455902 237.953354,187.742142 237.880157,182.028397 
z"/>
<path fill="#FDFDFE" opacity="1.000000" stroke="none" 
	d="
M164.688782,167.760941 
	C175.657349,154.000977 192.238480,149.197662 208.271515,155.145172 
	C220.941452,159.845108 231.952835,173.825897 231.620972,186.438675 
	C223.353912,173.277618 211.593857,170.149536 198.113861,174.452850 
	C187.552521,177.824432 180.813812,189.094360 181.055603,200.229141 
	C181.342026,213.418564 188.633270,221.667343 205.124924,227.459442 
	C190.859940,232.204849 175.092407,227.087540 165.109879,214.472656 
	C155.516861,202.349976 154.258240,184.603256 162.092743,171.851395 
	C162.875259,170.577744 163.690094,169.323975 164.688782,167.760941 
z"/>
<path fill="#FEFEFE" opacity="1.000000" stroke="none" 
	d="
M202.889130,179.395828 
	C213.789520,177.955475 221.356888,181.309433 225.783157,189.215546 
	C229.840561,196.462814 229.264496,205.961487 224.384781,212.272369 
	C218.788437,219.510147 209.666718,222.291031 201.233673,219.330322 
	C192.923096,216.412628 186.996124,208.001923 187.224365,199.450333 
	C187.476425,190.006821 193.268738,182.459595 202.889130,179.395828 
z"/>
<path fill="#565A9E" opacity="1.000000" stroke="none" 
	d="
M237.604858,182.335861 
	C237.953354,187.742142 238.026535,193.455902 238.004211,199.573761 
	C237.715652,194.199707 237.522598,188.421509 237.604858,182.335861 
z"/>
<path fill="#FAFAFA" opacity="1.000000" stroke="none" 
	d="
M527.011169,186.728455 
	C525.907776,193.306778 522.556274,197.574249 516.281067,198.739853 
	C510.927155,199.734314 506.360931,197.821640 503.347321,193.208511 
	C500.064178,188.182770 499.955505,182.893448 503.132935,177.717026 
	C506.074646,172.924637 511.940430,170.743820 517.482727,172.244019 
	C523.344238,173.830643 526.719604,178.807693 527.011169,186.728455 
z"/>
<path fill="#FAFAFA" opacity="1.000000" stroke="none" 
	d="
M445.976440,173.661163 
	C453.349457,170.562683 459.629028,171.711716 463.518860,176.605423 
	C467.781952,181.968704 467.902344,191.088425 463.783844,196.680771 
	C460.183044,201.570145 453.620728,203.291519 447.685547,200.903610 
	C437.691284,196.882568 436.556519,181.852127 445.976440,173.661163 
z"/>
<path fill="#FAFAFA" opacity="1.000000" stroke="none" 
	d="
M566.019409,193.563995 
	C565.888428,189.104904 565.220215,184.891479 566.025696,180.981689 
	C567.122620,175.657349 571.021179,172.523270 576.596497,171.941376 
	C582.925903,171.280792 587.575256,173.631760 590.379333,178.797073 
	C594.660645,186.683533 591.638184,197.317139 584.147949,200.720398 
	C577.306824,203.828751 570.495667,201.266205 566.019409,193.563995 
z"/>
<path fill="#F3F3F3" opacity="1.000000" stroke="none" 
	d="
M326.418396,195.812332 
	C332.266479,193.254715 337.868164,191.004913 343.636627,188.688126 
	C344.870087,197.176544 340.290955,203.219864 333.082794,203.615372 
	C327.844086,203.902817 325.659241,201.533218 326.418396,195.812332 
z"/>
</svg>